<?xml version="1.0" encoding="utf-8"?>
<svg xmlns="http://www.w3.org/2000/svg" height="512pt" version="1.1" viewBox="0 0 512 512" width="512pt">
  <circle cx="256" cy="256" r="256" fill="#36454F" />
  <path
    d="M 123.96 129.07 C 164.20 101.88 211.10 83.04 259.94 80.45 C 276.38 79.20 292.94 81.62 308.73 86.16 C 328.38 92.44 346.70 103.17 361.44 117.65 C 369.98 126.71 377.69 136.65 383.26 147.83 C 389.22 158.71 392.78 170.64 396.98 182.25 C 398.49 187.10 400.64 191.90 400.79 197.04 C 401.03 201.22 397.36 205.30 393.05 204.84 C 374.03 205.27 355.00 205.12 335.98 205.04 C 332.19 205.45 328.70 202.99 327.72 199.34 C 325.54 191.52 323.02 183.78 319.92 176.27 C 315.27 165.66 307.40 155.92 296.49 151.37 C 286.82 146.97 275.16 148.97 266.47 154.66 C 256.84 161.86 251.86 173.45 249.23 184.86 C 245.25 202.60 245.65 220.92 245.68 238.99 C 245.85 261.75 250.73 284.56 260.58 305.12 C 265.86 315.54 273.11 325.70 283.72 331.18 C 293.96 336.16 306.06 336.62 316.93 333.58 C 331.29 329.34 341.92 316.74 346.51 302.83 C 348.57 297.13 348.49 290.54 352.48 285.66 C 354.47 284.48 356.69 283.58 359.06 283.78 C 375.71 283.77 392.36 283.83 409.02 283.81 C 411.39 283.60 413.58 284.58 415.65 285.61 C 416.93 287.53 417.69 289.69 417.42 292.03 C 416.80 309.49 414.07 327.06 407.33 343.27 C 400.27 362.12 388.63 379.31 373.16 392.27 C 356.09 407.08 334.34 416.00 312.04 418.98 C 291.28 421.41 269.81 420.84 249.76 414.51 C 226.97 407.57 205.80 394.91 189.43 377.55 C 179.75 367.64 171.61 356.29 164.84 344.22 C 159.25 334.66 155.17 324.34 150.82 314.18 C 147.90 306.28 145.11 298.30 143.43 290.03 C 139.78 272.60 140.63 254.70 140.52 237.01 C 140.52 214.37 140.52 191.73 140.48 169.09 C 140.50 166.80 140.23 164.50 139.32 162.38 C 137.73 162.56 136.16 162.93 134.81 163.83 C 126.21 169.09 117.95 174.90 109.67 180.66 C 106.64 182.91 103.16 185.94 99.08 184.65 C 93.98 183.13 91.92 175.75 96.43 172.39 C 106.61 165.08 117.69 159.03 127.73 151.51 C 128.07 146.32 122.82 143.37 121.20 138.86 C 119.59 135.44 120.91 131.19 123.96 129.07 Z"
    fill="black" opacity="1.00" stroke="black" stroke-width="0.25" />
  <path
    d="M 253.45 92.11 C 266.93 90.87 280.68 90.79 294.00 93.52 C 317.60 98.15 339.87 110.06 356.06 127.95 C 365.10 138.15 372.80 149.72 377.69 162.49 C 381.84 172.50 385.18 182.82 388.48 193.13 C 372.17 193.14 355.87 193.16 339.56 193.09 C 339.29 192.94 338.74 192.64 338.47 192.49 C 334.63 179.89 331.73 166.89 326.12 154.90 C 315.33 132.47 287.91 119.54 263.76 125.80 C 248.60 129.63 235.40 140.22 227.90 153.88 C 222.86 162.42 219.87 172.08 218.63 181.89 C 217.34 195.61 219.17 209.38 221.59 222.88 C 224.87 239.70 228.26 256.51 232.60 273.10 C 235.84 284.63 237.57 296.66 242.66 307.59 C 249.75 324.58 264.39 338.00 281.53 344.47 C 300.81 351.09 324.45 349.15 339.91 334.91 C 350.56 324.22 357.07 310.06 360.63 295.53 C 375.71 295.26 390.81 295.27 405.90 295.45 C 405.62 296.85 405.34 298.26 404.83 299.60 C 396.34 321.52 381.65 340.55 364.46 356.36 C 348.61 370.44 328.76 380.00 307.82 383.36 C 286.17 386.39 263.49 383.90 243.64 374.43 C 220.62 363.97 202.21 346.05 185.01 327.96 C 173.50 315.29 162.47 302.08 153.36 287.54 C 153.18 279.31 151.63 271.19 151.54 262.95 C 151.52 229.66 151.71 196.36 151.52 163.07 C 151.74 158.72 149.86 154.77 147.50 151.25 C 155.48 145.97 163.89 141.36 172.53 137.26 C 175.91 135.72 179.89 134.23 183.54 135.80 C 187.33 137.62 188.64 142.11 188.60 146.02 C 188.57 173.36 188.57 200.69 188.56 228.03 C 188.57 240.32 188.17 252.63 188.75 264.91 C 190.37 286.85 193.72 309.48 205.25 328.64 C 210.88 339.24 219.01 348.22 227.61 356.49 C 230.57 358.69 235.14 357.99 237.45 355.11 C 237.60 353.42 237.86 351.71 237.66 350.02 C 236.48 348.02 234.63 346.53 233.00 344.92 C 227.14 339.46 221.65 333.56 217.14 326.92 C 211.21 317.88 207.22 307.67 204.55 297.23 C 201.49 284.72 199.18 271.93 199.21 259.01 C 199.08 221.34 199.19 183.67 199.14 145.99 C 199.18 140.32 198.16 134.19 194.08 129.94 C 188.91 123.77 179.68 122.31 172.43 125.38 C 160.54 130.10 149.35 136.50 138.81 143.72 C 137.01 141.64 135.32 139.17 135.00 136.37 C 135.66 134.74 137.12 133.68 138.52 132.74 C 155.18 122.32 172.40 112.49 191.07 106.12 C 211.15 98.83 232.13 93.86 253.45 92.11 Z"
    fill="#03DAC6" opacity="1.00" stroke="#03DAC6" stroke-width="0.25" />
</svg>